<mxfile host="app.diagrams.net" modified="2021-04-12T00:34:29.472Z" agent="5.0 (Windows NT 10.0; Win64; x64) AppleWebKit/537.36 (KHTML, like Gecko) Chrome/89.0.4389.114 Safari/537.36" etag="gh4YAVnWQsBFtfdSd7zW" version="14.5.10" type="github">
  <diagram id="ENrdHGA6ciR_aMiSWiET" name="第 1 页">
    <mxGraphModel dx="1926" dy="683" grid="1" gridSize="10" guides="1" tooltips="1" connect="1" arrows="1" fold="1" page="1" pageScale="1" pageWidth="827" pageHeight="1169" math="0" shadow="0">
      <root>
        <mxCell id="0" />
        <mxCell id="1" parent="0" />
        <mxCell id="PPQkrluGTdYHS21OoN43-1" value="软件工程教学辅助APP" style="ellipse;whiteSpace=wrap;html=1;aspect=fixed;fillColor=#f5f5f5;strokeColor=#666666;fontColor=#333333;gradientColor=#ffffff;" vertex="1" parent="1">
          <mxGeometry x="260" y="270" width="120" height="120" as="geometry" />
        </mxCell>
        <mxCell id="PPQkrluGTdYHS21OoN43-2" value="管理员" style="ellipse;whiteSpace=wrap;html=1;aspect=fixed;fillColor=#f5f5f5;strokeColor=#666666;fontColor=#333333;gradientColor=#ffffff;" vertex="1" parent="1">
          <mxGeometry x="280" y="10" width="80" height="80" as="geometry" />
        </mxCell>
        <mxCell id="PPQkrluGTdYHS21OoN43-3" value="游客" style="ellipse;whiteSpace=wrap;html=1;aspect=fixed;fillColor=#f5f5f5;strokeColor=#666666;fontColor=#333333;gradientColor=#ffffff;" vertex="1" parent="1">
          <mxGeometry x="280" y="580" width="80" height="80" as="geometry" />
        </mxCell>
        <mxCell id="PPQkrluGTdYHS21OoN43-4" value="教师" style="ellipse;whiteSpace=wrap;html=1;aspect=fixed;fillColor=#f5f5f5;strokeColor=#666666;fontColor=#333333;gradientColor=#ffffff;" vertex="1" parent="1">
          <mxGeometry x="-90" y="280" width="80" height="80" as="geometry" />
        </mxCell>
        <mxCell id="PPQkrluGTdYHS21OoN43-5" value="学生" style="ellipse;whiteSpace=wrap;html=1;aspect=fixed;gradientColor=#ffffff;" vertex="1" parent="1">
          <mxGeometry x="650" y="310" width="80" height="80" as="geometry" />
        </mxCell>
        <mxCell id="PPQkrluGTdYHS21OoN43-15" value="" style="curved=1;endArrow=none;html=1;entryX=0.25;entryY=0.976;entryDx=0;entryDy=0;exitX=0.423;exitY=-0.002;exitDx=0;exitDy=0;exitPerimeter=0;endFill=0;startArrow=classic;startFill=1;entryPerimeter=0;" edge="1" parent="1" source="PPQkrluGTdYHS21OoN43-1" target="PPQkrluGTdYHS21OoN43-2">
          <mxGeometry width="50" height="50" relative="1" as="geometry">
            <mxPoint x="220" y="170" as="sourcePoint" />
            <mxPoint x="270" y="120" as="targetPoint" />
            <Array as="points">
              <mxPoint x="180" y="150" />
            </Array>
          </mxGeometry>
        </mxCell>
        <mxCell id="PPQkrluGTdYHS21OoN43-36" value="管理学生、教师、&lt;br&gt;游客等信息" style="edgeLabel;html=1;align=center;verticalAlign=middle;resizable=0;points=[];" vertex="1" connectable="0" parent="PPQkrluGTdYHS21OoN43-15">
          <mxGeometry x="-0.0913" y="-14" relative="1" as="geometry">
            <mxPoint x="16" y="34" as="offset" />
          </mxGeometry>
        </mxCell>
        <mxCell id="PPQkrluGTdYHS21OoN43-16" value="" style="curved=1;endArrow=classic;html=1;entryX=0.238;entryY=0.963;entryDx=0;entryDy=0;entryPerimeter=0;" edge="1" parent="1" target="PPQkrluGTdYHS21OoN43-2">
          <mxGeometry width="50" height="50" relative="1" as="geometry">
            <mxPoint x="310" y="270" as="sourcePoint" />
            <mxPoint x="309" y="92" as="targetPoint" />
            <Array as="points">
              <mxPoint x="310" y="190" />
            </Array>
          </mxGeometry>
        </mxCell>
        <mxCell id="PPQkrluGTdYHS21OoN43-52" value="提供学生、&lt;br&gt;教师、游客&lt;br&gt;等信息" style="edgeLabel;html=1;align=center;verticalAlign=middle;resizable=0;points=[];" vertex="1" connectable="0" parent="PPQkrluGTdYHS21OoN43-16">
          <mxGeometry x="0.0219" y="-2" relative="1" as="geometry">
            <mxPoint as="offset" />
          </mxGeometry>
        </mxCell>
        <mxCell id="PPQkrluGTdYHS21OoN43-17" value="" style="curved=1;endArrow=classic;html=1;entryX=0.071;entryY=0.279;entryDx=0;entryDy=0;entryPerimeter=0;" edge="1" parent="1" target="PPQkrluGTdYHS21OoN43-1">
          <mxGeometry width="50" height="50" relative="1" as="geometry">
            <mxPoint x="-20" y="300" as="sourcePoint" />
            <mxPoint x="150" y="310" as="targetPoint" />
            <Array as="points">
              <mxPoint x="150" y="210" />
            </Array>
          </mxGeometry>
        </mxCell>
        <mxCell id="PPQkrluGTdYHS21OoN43-56" value="教师个人信息管理" style="edgeLabel;html=1;align=center;verticalAlign=middle;resizable=0;points=[];" vertex="1" connectable="0" parent="PPQkrluGTdYHS21OoN43-17">
          <mxGeometry x="-0.102" y="-31" relative="1" as="geometry">
            <mxPoint as="offset" />
          </mxGeometry>
        </mxCell>
        <mxCell id="PPQkrluGTdYHS21OoN43-18" value="" style="curved=1;endArrow=classic;html=1;exitX=1;exitY=0;exitDx=0;exitDy=0;entryX=0.09;entryY=0.199;entryDx=0;entryDy=0;entryPerimeter=0;" edge="1" parent="1" source="PPQkrluGTdYHS21OoN43-4" target="PPQkrluGTdYHS21OoN43-1">
          <mxGeometry width="50" height="50" relative="1" as="geometry">
            <mxPoint x="40" y="270" as="sourcePoint" />
            <mxPoint x="270" y="300" as="targetPoint" />
            <Array as="points">
              <mxPoint x="140" y="130" />
            </Array>
          </mxGeometry>
        </mxCell>
        <mxCell id="PPQkrluGTdYHS21OoN43-41" value="课程发布和管理" style="edgeLabel;html=1;align=center;verticalAlign=middle;resizable=0;points=[];" vertex="1" connectable="0" parent="PPQkrluGTdYHS21OoN43-18">
          <mxGeometry x="-0.1622" y="-29" relative="1" as="geometry">
            <mxPoint y="29" as="offset" />
          </mxGeometry>
        </mxCell>
        <mxCell id="PPQkrluGTdYHS21OoN43-19" value="" style="curved=1;endArrow=classic;html=1;exitX=0.981;exitY=0.331;exitDx=0;exitDy=0;exitPerimeter=0;entryX=0.017;entryY=0.356;entryDx=0;entryDy=0;entryPerimeter=0;" edge="1" parent="1" source="PPQkrluGTdYHS21OoN43-4" target="PPQkrluGTdYHS21OoN43-1">
          <mxGeometry width="50" height="50" relative="1" as="geometry">
            <mxPoint x="90" y="370" as="sourcePoint" />
            <mxPoint x="140" y="320" as="targetPoint" />
            <Array as="points">
              <mxPoint x="140" y="290" />
            </Array>
          </mxGeometry>
        </mxCell>
        <mxCell id="PPQkrluGTdYHS21OoN43-43" value="以博客形式分享教学心得和动态" style="edgeLabel;html=1;align=center;verticalAlign=middle;resizable=0;points=[];" vertex="1" connectable="0" parent="PPQkrluGTdYHS21OoN43-19">
          <mxGeometry x="-0.062" y="-2" relative="1" as="geometry">
            <mxPoint as="offset" />
          </mxGeometry>
        </mxCell>
        <mxCell id="PPQkrluGTdYHS21OoN43-20" value="" style="curved=1;endArrow=classic;html=1;entryX=0.025;entryY=0.413;entryDx=0;entryDy=0;entryPerimeter=0;" edge="1" parent="1" target="PPQkrluGTdYHS21OoN43-1">
          <mxGeometry width="50" height="50" relative="1" as="geometry">
            <mxPoint x="-10" y="320" as="sourcePoint" />
            <mxPoint x="180" y="330" as="targetPoint" />
            <Array as="points">
              <mxPoint x="130" y="390" />
            </Array>
          </mxGeometry>
        </mxCell>
        <mxCell id="PPQkrluGTdYHS21OoN43-61" value="发出问题以及解答其他用户问题" style="edgeLabel;html=1;align=center;verticalAlign=middle;resizable=0;points=[];" vertex="1" connectable="0" parent="PPQkrluGTdYHS21OoN43-20">
          <mxGeometry x="0.1536" y="29" relative="1" as="geometry">
            <mxPoint as="offset" />
          </mxGeometry>
        </mxCell>
        <mxCell id="PPQkrluGTdYHS21OoN43-22" value="" style="curved=1;endArrow=none;html=1;exitX=0.975;exitY=0.688;exitDx=0;exitDy=0;exitPerimeter=0;entryX=0.058;entryY=0.671;entryDx=0;entryDy=0;entryPerimeter=0;startArrow=classic;startFill=1;endFill=0;" edge="1" parent="1" source="PPQkrluGTdYHS21OoN43-4" target="PPQkrluGTdYHS21OoN43-1">
          <mxGeometry width="50" height="50" relative="1" as="geometry">
            <mxPoint x="40" y="470" as="sourcePoint" />
            <mxPoint x="90" y="420" as="targetPoint" />
            <Array as="points">
              <mxPoint x="50" y="370" />
              <mxPoint x="170" y="390" />
            </Array>
          </mxGeometry>
        </mxCell>
        <mxCell id="PPQkrluGTdYHS21OoN43-46" value="接受各类通知" style="edgeLabel;html=1;align=center;verticalAlign=middle;resizable=0;points=[];" vertex="1" connectable="0" parent="PPQkrluGTdYHS21OoN43-22">
          <mxGeometry x="0.0366" y="1" relative="1" as="geometry">
            <mxPoint as="offset" />
          </mxGeometry>
        </mxCell>
        <mxCell id="PPQkrluGTdYHS21OoN43-23" value="" style="curved=1;endArrow=classic;html=1;entryX=0.088;entryY=0.754;entryDx=0;entryDy=0;entryPerimeter=0;exitX=0.895;exitY=0.778;exitDx=0;exitDy=0;exitPerimeter=0;" edge="1" parent="1" source="PPQkrluGTdYHS21OoN43-4" target="PPQkrluGTdYHS21OoN43-1">
          <mxGeometry width="50" height="50" relative="1" as="geometry">
            <mxPoint x="-14" y="348" as="sourcePoint" />
            <mxPoint x="130" y="420" as="targetPoint" />
            <Array as="points">
              <mxPoint x="140" y="450" />
            </Array>
          </mxGeometry>
        </mxCell>
        <mxCell id="PPQkrluGTdYHS21OoN43-47" value="进行文章、问答&lt;br&gt;举报和使用反馈" style="edgeLabel;html=1;align=center;verticalAlign=middle;resizable=0;points=[];" vertex="1" connectable="0" parent="PPQkrluGTdYHS21OoN43-23">
          <mxGeometry x="-0.108" y="34" relative="1" as="geometry">
            <mxPoint as="offset" />
          </mxGeometry>
        </mxCell>
        <mxCell id="PPQkrluGTdYHS21OoN43-24" value="" style="curved=1;endArrow=classic;html=1;entryX=0;entryY=1;entryDx=0;entryDy=0;" edge="1" parent="1" target="PPQkrluGTdYHS21OoN43-1">
          <mxGeometry width="50" height="50" relative="1" as="geometry">
            <mxPoint x="-25" y="356" as="sourcePoint" />
            <mxPoint x="170" y="430" as="targetPoint" />
            <Array as="points">
              <mxPoint x="80" y="460" />
              <mxPoint x="190" y="460" />
            </Array>
          </mxGeometry>
        </mxCell>
        <mxCell id="PPQkrluGTdYHS21OoN43-48" value="关注其他用户" style="edgeLabel;html=1;align=center;verticalAlign=middle;resizable=0;points=[];" vertex="1" connectable="0" parent="PPQkrluGTdYHS21OoN43-24">
          <mxGeometry x="0.1358" y="1" relative="1" as="geometry">
            <mxPoint as="offset" />
          </mxGeometry>
        </mxCell>
        <mxCell id="PPQkrluGTdYHS21OoN43-33" value="" style="curved=1;endArrow=classic;html=1;exitX=0.338;exitY=0.05;exitDx=0;exitDy=0;exitPerimeter=0;" edge="1" parent="1">
          <mxGeometry width="50" height="50" relative="1" as="geometry">
            <mxPoint x="305.55999999999995" y="584.72" as="sourcePoint" />
            <mxPoint x="306" y="387" as="targetPoint" />
            <Array as="points">
              <mxPoint x="225" y="428.72" />
            </Array>
          </mxGeometry>
        </mxCell>
        <mxCell id="PPQkrluGTdYHS21OoN43-39" value="查看首页内容" style="edgeLabel;html=1;align=center;verticalAlign=middle;resizable=0;points=[];" vertex="1" connectable="0" parent="PPQkrluGTdYHS21OoN43-33">
          <mxGeometry x="-0.2147" y="-12" relative="1" as="geometry">
            <mxPoint as="offset" />
          </mxGeometry>
        </mxCell>
        <mxCell id="PPQkrluGTdYHS21OoN43-34" value="" style="curved=1;endArrow=classic;html=1;exitX=0.646;exitY=0.046;exitDx=0;exitDy=0;exitPerimeter=0;entryX=0.733;entryY=0.917;entryDx=0;entryDy=0;entryPerimeter=0;" edge="1" parent="1" target="PPQkrluGTdYHS21OoN43-1">
          <mxGeometry width="50" height="50" relative="1" as="geometry">
            <mxPoint x="342.52" y="584.24" as="sourcePoint" />
            <mxPoint x="346" y="390" as="targetPoint" />
            <Array as="points">
              <mxPoint x="415" y="498.72" />
            </Array>
          </mxGeometry>
        </mxCell>
        <mxCell id="PPQkrluGTdYHS21OoN43-40" value="进行注册、登陆操作" style="edgeLabel;html=1;align=center;verticalAlign=middle;resizable=0;points=[];" vertex="1" connectable="0" parent="PPQkrluGTdYHS21OoN43-34">
          <mxGeometry x="0.2506" y="16" relative="1" as="geometry">
            <mxPoint as="offset" />
          </mxGeometry>
        </mxCell>
        <mxCell id="PPQkrluGTdYHS21OoN43-37" value="" style="curved=1;endArrow=none;html=1;endFill=0;startArrow=classic;startFill=1;exitX=0.739;exitY=0.06;exitDx=0;exitDy=0;exitPerimeter=0;" edge="1" parent="1" source="PPQkrluGTdYHS21OoN43-1">
          <mxGeometry width="50" height="50" relative="1" as="geometry">
            <mxPoint x="361" y="283" as="sourcePoint" />
            <mxPoint x="350" y="80" as="targetPoint" />
            <Array as="points">
              <mxPoint x="430" y="208.44" />
              <mxPoint x="420" y="118.44" />
            </Array>
          </mxGeometry>
        </mxCell>
        <mxCell id="PPQkrluGTdYHS21OoN43-38" value="&lt;span&gt;审核、查看、删除&lt;br&gt;博客、问答和课程&lt;/span&gt;" style="edgeLabel;html=1;align=center;verticalAlign=middle;resizable=0;points=[];" vertex="1" connectable="0" parent="PPQkrluGTdYHS21OoN43-37">
          <mxGeometry x="0.1365" y="-9" relative="1" as="geometry">
            <mxPoint x="8" y="37" as="offset" />
          </mxGeometry>
        </mxCell>
        <mxCell id="PPQkrluGTdYHS21OoN43-51" value="" style="curved=1;endArrow=classic;html=1;entryX=1;entryY=1;entryDx=0;entryDy=0;" edge="1" parent="1" target="PPQkrluGTdYHS21OoN43-2">
          <mxGeometry width="50" height="50" relative="1" as="geometry">
            <mxPoint x="348" y="276" as="sourcePoint" />
            <mxPoint x="320" y="180" as="targetPoint" />
            <Array as="points">
              <mxPoint x="362" y="240" />
            </Array>
          </mxGeometry>
        </mxCell>
        <mxCell id="PPQkrluGTdYHS21OoN43-53" value="返回操作结果" style="edgeLabel;html=1;align=center;verticalAlign=middle;resizable=0;points=[];" vertex="1" connectable="0" parent="PPQkrluGTdYHS21OoN43-51">
          <mxGeometry x="0.4136" y="2" relative="1" as="geometry">
            <mxPoint as="offset" />
          </mxGeometry>
        </mxCell>
        <mxCell id="PPQkrluGTdYHS21OoN43-54" value="" style="curved=1;endArrow=none;html=1;startArrow=classic;startFill=1;endFill=0;entryX=0.083;entryY=0.167;entryDx=0;entryDy=0;entryPerimeter=0;" edge="1" parent="1" target="PPQkrluGTdYHS21OoN43-1">
          <mxGeometry width="50" height="50" relative="1" as="geometry">
            <mxPoint x="-20" y="290" as="sourcePoint" />
            <mxPoint x="270" y="300" as="targetPoint" />
            <Array as="points">
              <mxPoint x="70" y="230" />
              <mxPoint x="170" y="220" />
            </Array>
          </mxGeometry>
        </mxCell>
        <mxCell id="PPQkrluGTdYHS21OoN43-55" value="返回课程信息" style="edgeLabel;html=1;align=center;verticalAlign=middle;resizable=0;points=[];" vertex="1" connectable="0" parent="PPQkrluGTdYHS21OoN43-54">
          <mxGeometry x="-0.0112" y="-2" relative="1" as="geometry">
            <mxPoint as="offset" />
          </mxGeometry>
        </mxCell>
        <mxCell id="PPQkrluGTdYHS21OoN43-57" value="" style="curved=1;endArrow=none;html=1;endFill=0;startArrow=classic;startFill=1;" edge="1" parent="1">
          <mxGeometry width="50" height="50" relative="1" as="geometry">
            <mxPoint x="-20" y="300" as="sourcePoint" />
            <mxPoint x="270" y="300" as="targetPoint" />
            <Array as="points">
              <mxPoint x="130" y="250" />
            </Array>
          </mxGeometry>
        </mxCell>
        <mxCell id="PPQkrluGTdYHS21OoN43-58" value="返回个人信息" style="edgeLabel;html=1;align=center;verticalAlign=middle;resizable=0;points=[];" vertex="1" connectable="0" parent="PPQkrluGTdYHS21OoN43-57">
          <mxGeometry x="-0.0803" y="-20" relative="1" as="geometry">
            <mxPoint as="offset" />
          </mxGeometry>
        </mxCell>
        <mxCell id="PPQkrluGTdYHS21OoN43-59" value="" style="curved=1;endArrow=none;html=1;endFill=0;startArrow=classic;startFill=1;exitX=0.963;exitY=0.335;exitDx=0;exitDy=0;exitPerimeter=0;" edge="1" parent="1" source="PPQkrluGTdYHS21OoN43-4">
          <mxGeometry width="50" height="50" relative="1" as="geometry">
            <mxPoint x="-10" y="310" as="sourcePoint" />
            <mxPoint x="260" y="310" as="targetPoint" />
            <Array as="points" />
          </mxGeometry>
        </mxCell>
        <mxCell id="PPQkrluGTdYHS21OoN43-60" value="分享成功" style="edgeLabel;html=1;align=center;verticalAlign=middle;resizable=0;points=[];" vertex="1" connectable="0" parent="PPQkrluGTdYHS21OoN43-59">
          <mxGeometry x="-0.062" y="-2" relative="1" as="geometry">
            <mxPoint as="offset" />
          </mxGeometry>
        </mxCell>
        <mxCell id="PPQkrluGTdYHS21OoN43-62" value="" style="curved=1;endArrow=none;html=1;entryX=0;entryY=0.417;entryDx=0;entryDy=0;entryPerimeter=0;startArrow=classic;startFill=1;endFill=0;" edge="1" parent="1" target="PPQkrluGTdYHS21OoN43-1">
          <mxGeometry width="50" height="50" relative="1" as="geometry">
            <mxPoint x="-10" y="320" as="sourcePoint" />
            <mxPoint x="-50" y="440" as="targetPoint" />
            <Array as="points">
              <mxPoint x="130" y="350" />
            </Array>
          </mxGeometry>
        </mxCell>
        <mxCell id="PPQkrluGTdYHS21OoN43-64" value="发表成功" style="edgeLabel;html=1;align=center;verticalAlign=middle;resizable=0;points=[];" vertex="1" connectable="0" parent="PPQkrluGTdYHS21OoN43-62">
          <mxGeometry x="-0.0321" y="15" relative="1" as="geometry">
            <mxPoint as="offset" />
          </mxGeometry>
        </mxCell>
        <mxCell id="PPQkrluGTdYHS21OoN43-65" value="" style="curved=1;endArrow=none;html=1;exitX=0.78;exitY=0.903;exitDx=0;exitDy=0;exitPerimeter=0;startArrow=classic;startFill=1;endFill=0;" edge="1" parent="1" source="PPQkrluGTdYHS21OoN43-4">
          <mxGeometry width="50" height="50" relative="1" as="geometry">
            <mxPoint x="20" y="530" as="sourcePoint" />
            <mxPoint x="280" y="370" as="targetPoint" />
            <Array as="points">
              <mxPoint x="100" y="430" />
              <mxPoint x="150" y="440" />
            </Array>
          </mxGeometry>
        </mxCell>
        <mxCell id="PPQkrluGTdYHS21OoN43-66" value="关注成功" style="edgeLabel;html=1;align=center;verticalAlign=middle;resizable=0;points=[];" vertex="1" connectable="0" parent="PPQkrluGTdYHS21OoN43-65">
          <mxGeometry x="0.0912" y="5" relative="1" as="geometry">
            <mxPoint as="offset" />
          </mxGeometry>
        </mxCell>
        <mxCell id="PPQkrluGTdYHS21OoN43-67" value="" style="curved=1;endArrow=none;html=1;endFill=0;startArrow=classic;startFill=1;" edge="1" parent="1">
          <mxGeometry width="50" height="50" relative="1" as="geometry">
            <mxPoint x="380" y="310" as="sourcePoint" />
            <mxPoint x="656" y="330" as="targetPoint" />
            <Array as="points">
              <mxPoint x="537.6" y="230" />
            </Array>
          </mxGeometry>
        </mxCell>
        <mxCell id="PPQkrluGTdYHS21OoN43-68" value="学生个人信息管理" style="edgeLabel;html=1;align=center;verticalAlign=middle;resizable=0;points=[];" vertex="1" connectable="0" parent="PPQkrluGTdYHS21OoN43-67">
          <mxGeometry x="-0.102" y="-31" relative="1" as="geometry">
            <mxPoint as="offset" />
          </mxGeometry>
        </mxCell>
        <mxCell id="PPQkrluGTdYHS21OoN43-69" value="" style="curved=1;endArrow=none;html=1;entryX=0;entryY=0;entryDx=0;entryDy=0;startArrow=classic;startFill=1;endFill=0;" edge="1" parent="1" target="PPQkrluGTdYHS21OoN43-5">
          <mxGeometry width="50" height="50" relative="1" as="geometry">
            <mxPoint x="370" y="293" as="sourcePoint" />
            <mxPoint x="658.4" y="313.88" as="targetPoint" />
            <Array as="points">
              <mxPoint x="527.6" y="150" />
            </Array>
          </mxGeometry>
        </mxCell>
        <mxCell id="PPQkrluGTdYHS21OoN43-70" value="查看课件视频与下载资料" style="edgeLabel;html=1;align=center;verticalAlign=middle;resizable=0;points=[];" vertex="1" connectable="0" parent="PPQkrluGTdYHS21OoN43-69">
          <mxGeometry x="-0.1622" y="-29" relative="1" as="geometry">
            <mxPoint y="29" as="offset" />
          </mxGeometry>
        </mxCell>
        <mxCell id="PPQkrluGTdYHS21OoN43-71" value="" style="curved=1;endArrow=none;html=1;exitX=0.981;exitY=0.331;exitDx=0;exitDy=0;exitPerimeter=0;startArrow=classic;startFill=1;endFill=0;" edge="1" parent="1">
          <mxGeometry width="50" height="50" relative="1" as="geometry">
            <mxPoint x="376.08000000000004" y="326.48" as="sourcePoint" />
            <mxPoint x="650" y="340" as="targetPoint" />
            <Array as="points">
              <mxPoint x="527.6" y="310" />
            </Array>
          </mxGeometry>
        </mxCell>
        <mxCell id="PPQkrluGTdYHS21OoN43-72" value="发表博客" style="edgeLabel;html=1;align=center;verticalAlign=middle;resizable=0;points=[];" vertex="1" connectable="0" parent="PPQkrluGTdYHS21OoN43-71">
          <mxGeometry x="-0.062" y="-2" relative="1" as="geometry">
            <mxPoint as="offset" />
          </mxGeometry>
        </mxCell>
        <mxCell id="PPQkrluGTdYHS21OoN43-73" value="" style="curved=1;endArrow=classic;html=1;entryX=0;entryY=0.5;entryDx=0;entryDy=0;" edge="1" parent="1" target="PPQkrluGTdYHS21OoN43-5">
          <mxGeometry width="50" height="50" relative="1" as="geometry">
            <mxPoint x="377.6" y="340" as="sourcePoint" />
            <mxPoint x="650.6" y="339.55999999999995" as="targetPoint" />
            <Array as="points">
              <mxPoint x="517.6" y="410" />
            </Array>
          </mxGeometry>
        </mxCell>
        <mxCell id="PPQkrluGTdYHS21OoN43-74" value="发出问题以及解答其他用户问题" style="edgeLabel;html=1;align=center;verticalAlign=middle;resizable=0;points=[];" vertex="1" connectable="0" parent="PPQkrluGTdYHS21OoN43-73">
          <mxGeometry x="0.1536" y="29" relative="1" as="geometry">
            <mxPoint as="offset" />
          </mxGeometry>
        </mxCell>
        <mxCell id="PPQkrluGTdYHS21OoN43-75" value="" style="curved=1;endArrow=classic;html=1;exitX=0.975;exitY=0.688;exitDx=0;exitDy=0;exitPerimeter=0;" edge="1" parent="1">
          <mxGeometry width="50" height="50" relative="1" as="geometry">
            <mxPoint x="375.6" y="355.03999999999996" as="sourcePoint" />
            <mxPoint x="655" y="371" as="targetPoint" />
            <Array as="points">
              <mxPoint x="437.6" y="390" />
              <mxPoint x="557.6" y="410" />
            </Array>
          </mxGeometry>
        </mxCell>
        <mxCell id="PPQkrluGTdYHS21OoN43-76" value="接受各类通知" style="edgeLabel;html=1;align=center;verticalAlign=middle;resizable=0;points=[];" vertex="1" connectable="0" parent="PPQkrluGTdYHS21OoN43-75">
          <mxGeometry x="0.0366" y="1" relative="1" as="geometry">
            <mxPoint as="offset" />
          </mxGeometry>
        </mxCell>
        <mxCell id="PPQkrluGTdYHS21OoN43-77" value="" style="curved=1;endArrow=none;html=1;exitX=0.895;exitY=0.778;exitDx=0;exitDy=0;exitPerimeter=0;endFill=0;startArrow=classic;startFill=1;" edge="1" parent="1">
          <mxGeometry width="50" height="50" relative="1" as="geometry">
            <mxPoint x="369.20000000000016" y="362.2400000000001" as="sourcePoint" />
            <mxPoint x="670" y="380" as="targetPoint" />
            <Array as="points">
              <mxPoint x="527.6" y="470" />
            </Array>
          </mxGeometry>
        </mxCell>
        <mxCell id="PPQkrluGTdYHS21OoN43-78" value="进行文章、问答&lt;br&gt;举报和使用反馈" style="edgeLabel;html=1;align=center;verticalAlign=middle;resizable=0;points=[];" vertex="1" connectable="0" parent="PPQkrluGTdYHS21OoN43-77">
          <mxGeometry x="-0.108" y="34" relative="1" as="geometry">
            <mxPoint as="offset" />
          </mxGeometry>
        </mxCell>
        <mxCell id="PPQkrluGTdYHS21OoN43-79" value="" style="curved=1;endArrow=none;html=1;entryX=0.301;entryY=0.929;entryDx=0;entryDy=0;entryPerimeter=0;endFill=0;startArrow=classic;startFill=1;" edge="1" parent="1" target="PPQkrluGTdYHS21OoN43-5">
          <mxGeometry width="50" height="50" relative="1" as="geometry">
            <mxPoint x="362.6" y="376" as="sourcePoint" />
            <mxPoint x="665.1735931288073" y="392.4264068711926" as="targetPoint" />
            <Array as="points">
              <mxPoint x="467.6" y="480" />
              <mxPoint x="577.6" y="480" />
            </Array>
          </mxGeometry>
        </mxCell>
        <mxCell id="PPQkrluGTdYHS21OoN43-80" value="关注其他用户" style="edgeLabel;html=1;align=center;verticalAlign=middle;resizable=0;points=[];" vertex="1" connectable="0" parent="PPQkrluGTdYHS21OoN43-79">
          <mxGeometry x="0.1358" y="1" relative="1" as="geometry">
            <mxPoint as="offset" />
          </mxGeometry>
        </mxCell>
        <mxCell id="PPQkrluGTdYHS21OoN43-81" value="" style="curved=1;endArrow=classic;html=1;startArrow=none;startFill=0;endFill=1;entryX=0;entryY=0;entryDx=0;entryDy=0;exitX=0.899;exitY=0.224;exitDx=0;exitDy=0;exitPerimeter=0;" edge="1" parent="1" source="PPQkrluGTdYHS21OoN43-1" target="PPQkrluGTdYHS21OoN43-5">
          <mxGeometry width="50" height="50" relative="1" as="geometry">
            <mxPoint x="367.6" y="310" as="sourcePoint" />
            <mxPoint x="657.5600000000003" y="310.03999999999996" as="targetPoint" />
            <Array as="points">
              <mxPoint x="457.6" y="250" />
              <mxPoint x="557.6" y="240" />
            </Array>
          </mxGeometry>
        </mxCell>
        <mxCell id="PPQkrluGTdYHS21OoN43-82" value="返回课件视频与资料" style="edgeLabel;html=1;align=center;verticalAlign=middle;resizable=0;points=[];" vertex="1" connectable="0" parent="PPQkrluGTdYHS21OoN43-81">
          <mxGeometry x="-0.0112" y="-2" relative="1" as="geometry">
            <mxPoint as="offset" />
          </mxGeometry>
        </mxCell>
        <mxCell id="PPQkrluGTdYHS21OoN43-83" value="" style="curved=1;endArrow=classic;html=1;endFill=1;startArrow=none;startFill=0;exitX=0.963;exitY=0.335;exitDx=0;exitDy=0;exitPerimeter=0;" edge="1" parent="1">
          <mxGeometry width="50" height="50" relative="1" as="geometry">
            <mxPoint x="374.64" y="326.80000000000007" as="sourcePoint" />
            <mxPoint x="648" y="340" as="targetPoint" />
            <Array as="points" />
          </mxGeometry>
        </mxCell>
        <mxCell id="PPQkrluGTdYHS21OoN43-84" value="分享成功" style="edgeLabel;html=1;align=center;verticalAlign=middle;resizable=0;points=[];" vertex="1" connectable="0" parent="PPQkrluGTdYHS21OoN43-83">
          <mxGeometry x="-0.062" y="-2" relative="1" as="geometry">
            <mxPoint as="offset" />
          </mxGeometry>
        </mxCell>
        <mxCell id="PPQkrluGTdYHS21OoN43-85" value="" style="curved=1;endArrow=none;html=1;entryX=0;entryY=0.5;entryDx=0;entryDy=0;startArrow=classic;startFill=1;endFill=0;" edge="1" parent="1" target="PPQkrluGTdYHS21OoN43-5">
          <mxGeometry width="50" height="50" relative="1" as="geometry">
            <mxPoint x="377.6" y="340" as="sourcePoint" />
            <mxPoint x="647.6" y="340.03999999999996" as="targetPoint" />
            <Array as="points">
              <mxPoint x="517.6" y="370" />
            </Array>
          </mxGeometry>
        </mxCell>
        <mxCell id="PPQkrluGTdYHS21OoN43-86" value="发表成功" style="edgeLabel;html=1;align=center;verticalAlign=middle;resizable=0;points=[];" vertex="1" connectable="0" parent="PPQkrluGTdYHS21OoN43-85">
          <mxGeometry x="-0.0321" y="15" relative="1" as="geometry">
            <mxPoint as="offset" />
          </mxGeometry>
        </mxCell>
        <mxCell id="PPQkrluGTdYHS21OoN43-87" value="" style="curved=1;endArrow=classic;html=1;exitX=0.78;exitY=0.903;exitDx=0;exitDy=0;exitPerimeter=0;startArrow=none;startFill=0;endFill=1;" edge="1" parent="1">
          <mxGeometry width="50" height="50" relative="1" as="geometry">
            <mxPoint x="360.0000000000001" y="372.2400000000001" as="sourcePoint" />
            <mxPoint x="667.6" y="390" as="targetPoint" />
            <Array as="points">
              <mxPoint x="487.6" y="450" />
              <mxPoint x="537.6" y="460" />
            </Array>
          </mxGeometry>
        </mxCell>
        <mxCell id="PPQkrluGTdYHS21OoN43-88" value="关注成功" style="edgeLabel;html=1;align=center;verticalAlign=middle;resizable=0;points=[];" vertex="1" connectable="0" parent="PPQkrluGTdYHS21OoN43-87">
          <mxGeometry x="0.0912" y="5" relative="1" as="geometry">
            <mxPoint as="offset" />
          </mxGeometry>
        </mxCell>
      </root>
    </mxGraphModel>
  </diagram>
</mxfile>
